Coordinates
version=1
nRows=5
nColumns=42
inDegrees=yes

Units are S.I. units (second, meters, Newtons, ...)
If the header above contains a line with 'inDegrees', this indicates whether rotational values are in degrees (yes) or radians (no).

endheader
time	pelvis_tilt	pelvis_list	pelvis_rotation	pelvis_tx	pelvis_ty	pelvis_tz	hip_flexion_r	hip_adduction_r	hip_rotation_r	knee_angle_r	knee_adduction_r	knee_angle_r_beta	ankle_angle_r	subtalar_angle_r	mtp_angle_r	hip_flexion_l	hip_adduction_l	hip_rotation_l	knee_angle_l	knee_adduction_l	knee_angle_l_beta	ankle_angle_l	subtalar_angle_l	mtp_angle_l	lumbar_extension	lumbar_bending	lumbar_rotation	arm_flex_r	arm_add_r	arm_rot_r	elbow_flex_r	pro_sup_r	wrist_flex_r	wrist_dev_r	arm_flex_l	arm_add_l	arm_rot_l	elbow_flex_l	pro_sup_l	wrist_flex_l	wrist_dev_l
      0.46000000	     13.69268956	      0.23044553	      3.09739593	     -0.60185442	      0.91836108	     -0.22631516	    -25.30957002	      6.94613302	    -38.32545376	      9.61034824	     -3.88447909	      0.16773222	     32.30911489	     33.84142206	     -8.92880145	     19.70343248	      2.77138432	    -32.84063624	     24.39881364	    -13.11441054	      0.42583963	     14.52672639	     34.57458716	     -8.92880145	    -44.49627452	      1.00725720	      0.32356097	      5.88036970	    -12.11878891	      8.73245151	     39.03324436	     90.00000001	      0.00000000	      0.00000000	     -5.85959895	     -8.92773874	     13.58736141	     45.71246935	     90.00000001	      0.00000000	      0.00000000
      0.47000000	     13.82014380	      0.21568418	      2.88046755	     -0.59416939	      0.91754651	     -0.22680809	    -25.76159995	      6.84566961	    -38.03697860	     10.00351112	     -4.22983824	      0.17459421	     32.29062207	     33.70187308	     -8.92093351	     19.48835822	      2.96426610	    -32.30122738	     24.99553364	    -13.45609918	      0.43625436	     14.16241315	     34.27495475	     -8.92093351	    -44.49865893	      0.72533815	      0.39976377	      5.60941838	    -12.02610828	      8.76271293	     38.94214278	     90.00000001	      0.00000000	      0.00000000	     -5.98954495	     -8.91458886	     13.57598181	     45.65346336	     90.00000001	      0.00000000	      0.00000000
      0.48000000	     13.85870127	      0.27513144	      2.66799528	     -0.58683354	      0.91703249	     -0.22742712	    -25.87086368	      6.38950450	    -38.20673287	     11.02590055	     -4.43959600	      0.19243827	     32.91592213	     33.71784237	     -8.86252821	     19.22297291	      3.39224262	    -30.51027710	     25.59413159	    -13.29446144	      0.44670187	     11.94225067	     30.53889232	     -8.86252821	    -44.48273988	      0.39044069	      0.32920404	      5.62190300	    -11.88153002	      8.88023922	     38.48222924	     90.00000001	      0.00000000	      0.00000000	     -5.91100454	     -8.90283575	     13.51726559	     45.32687442	     90.00000001	      0.00000000	      0.00000000
      0.49000000	     13.96085018	      0.29313557	      2.44044931	     -0.57918593	      0.91669068	     -0.22791123	    -26.17302765	      6.26667925	    -37.80226285	     11.52754374	     -4.92505214	      0.20119359	     32.80082518	     33.57809371	     -8.85426686	     18.95915647	      3.55762359	    -29.97519495	     26.18940560	    -13.51474533	      0.45709136	     11.71123954	     30.21226477	     -8.85426686	    -44.48700857	      0.05954378	      0.37897459	      5.37844690	    -11.75530434	      8.90707054	     38.41180522	     90.00000001	      0.00000000	      0.00000000	     -6.00699324	     -8.93814821	     13.50026053	     45.26913265	     90.00000001	      0.00000000	      0.00000000
      0.50000000	     13.86820407	      0.39478936	      2.24260068	     -0.57211838	      0.91653369	     -0.22858058	    -25.84945497	      5.71257134	    -38.14282974	     12.99270841	     -5.39194053	      0.22676554	     33.23698948	     33.72033855	     -8.76349593	     18.69935627	      4.12002032	    -27.22701476	     26.77937752	    -12.91837365	      0.46738831	     10.23768971	     24.53671347	     -8.76349593	    -44.39776045	     -0.31199523	      0.32294326	      5.49154591	    -11.55421197	      8.87832407	     37.71690070	     90.00000001	      0.00000000	      0.00000000	     -5.82604322	     -8.95399415	     13.53444607	     44.77316595	     90.00000001	      0.00000000	      0.00000000
